<?xml version="1.0" encoding="utf-8"?>
<!-- Generator: Adobe Illustrator 15.1.0, SVG Export Plug-In . SVG Version: 6.00 Build 0)  -->
<!DOCTYPE svg PUBLIC "-//W3C//DTD SVG 1.1//EN" "http://www.w3.org/Graphics/SVG/1.1/DTD/svg11.dtd">
<svg version="1.1" id="Layer_1" xmlns="http://www.w3.org/2000/svg" xmlns:xlink="http://www.w3.org/1999/xlink" x="0px" y="0px"
	 width="500px" height="132px" viewBox="0 0 500 132" enable-background="new 0 0 500 132" xml:space="preserve">
<g>
	<g>
		<path fill="#F8A285" d="M47.053,117.686l27.442-7.515l5.678-13.539l-9.718-1.965l-0.221-6.334c0,0,13.541-2.729,14.741-18.017
			c0,0,7.535,1.069,7.752-6.074c0.218-7.141-3.498-6.702-4.919-6.922l-0.98-2.294l-3.821-12.244c0,0-1.313-7.629-17.908-7.192
			s-17.54,6.441-17.54,6.441s-1.667,6.604-2.102,14.847c0,0-5.692,1.188-5.146,7.362c0.546,6.18,4.705,5.854,5.792,5.637l0,0
			c1.521,8.568,5.683,16.303,15.328,18.346v6.332l-16.068,4.805l-8.539,12.82"/>
		<path fill="#4A4A4A" d="M48.993,57.813c0,0,4.146-0.765,7.916,0v-2.348c0,0-5.624-0.218-7.916,0.273V57.813L48.993,57.813z"/>
		<path fill="#4A4A4A" d="M69.467,57.484v-2.066c0,0,3.712-0.392,7.808,0.32v2.348C77.274,58.086,73.562,57.265,69.467,57.484z"/>
		<ellipse fill="#4A4A4A" cx="54.48" cy="63.299" rx="2.432" ry="2.866"/>
		<ellipse fill="#4A4A4A" cx="72.333" cy="63.299" rx="2.43" ry="2.866"/>
		<path fill="#EF8D72" d="M64.007,61.526l0.313,9.5c0,0-0.366,3.387-3.589,3.274c-3.22-0.11-3.876-4.911,0.874-5.241
			C61.604,69.061,63.188,68.241,64.007,61.526z"/>
		<path fill="#D24746" d="M56.609,78.035H70.75c0,0-1.2,5.568-6.771,5.351C58.411,83.168,56.718,80.165,56.609,78.035z"/>
		<path fill="#FFFFFF" d="M56.527,76.595h14.308v1.748c0,0-3.061,0.981-7.153,0.872c-4.094-0.107-7.152-1.091-7.152-1.091
			L56.527,76.595L56.527,76.595z"/>
		<path fill="#F08D72" d="M47.468,75.209c0,0,3.499,11.291,13.964,13.008v6.336l-5.337,1.498c0,0,0.976,11.998,10.558,11.914
			c9.583-0.079,11.877-11.48,11.877-11.48s-4.773-1.195-8.077-1.822l-0.222-6.333c0,0,13.568-3.085,14.741-18.019
			c0,0,4.755,0.695,6.854-2.689c0,0-2.486,2.418-7.813,1.271c0,0-1.637,18.018-18.59,18.018
			C65.427,86.911,55.634,88.398,47.468,75.209z"/>
		<path fill="#F08D72" d="M46.307,45.678c0,0,17.375,4.546,32.063-0.286c0,0,2.975,0.787,6.306,5.978l-4.586-9.951l-32.348-1.434
			L46.307,45.678z"/>
		<path fill="#4A4A4A" d="M85.478,36.666c0,0,8.627,3.713,0.548,26.207c0,0-1.202-13.977-7.426-19.983
			c0,0-14.276,4.492-30.247-0.437c0,0-1.966,6.225-2.729,20.42c0,0-4.367-14.742-1.747-22.058c0,0-4.175-7.344,0.837-11.996
			c0,0-0.379,2.315,2.755,1.028c0,0-3.388-3.121,7.013-5.961c0,0-0.956,3.052,2.979,2.528C57.455,26.418,81.22,21.486,85.478,36.666
			z"/>
		<path fill="#232323" d="M43.875,40.813l4.477,1.639l-0.746,3.534l-4.578-0.616C43.029,45.362,42.854,43.31,43.875,40.813z"/>
		<path fill="#232323" d="M44.713,28.82c0,0-7.24,7.645,3.079,11.999C47.792,40.813,42.707,37.861,44.713,28.82z"/>
		<path fill="#232323" d="M53.414,24.202c0,0-9.527,3.208-3.493,6.421C49.921,30.623,41.623,28.166,53.414,24.202z"/>
		<path fill="#71A9CF" d="M87.473,117.755c1.867-9.776,5.834-17.258,5.834-17.258c-6.286-3.343-15.599-5.077-21.116-5.801
			c-1.75,5.329-5.538,12.864-5.538,12.864c-3.972-1.431-5.54-10.867-6.142-13.009c-10.017,1.052-19.77,4.767-19.77,4.767
			c2.242,5.653,2.765,12,3.204,17.379"/>
		<path fill="#71A9CF" d="M49.563,118.109c0.913-7.803-6.375-17.082-8.816-18.789c0,0-1.249,5.719-4.61,11.361"/>
		<path fill="#6A92B7" d="M67.914,110.013c0,0-0.11-2.292-2.104-2.866c0,0,1.774,0.574,1.611,3.029"/>
		<circle fill="#E2E2E2" cx="65.975" cy="108.75" r="0.779"/>
		<circle fill="#E2E2E2" cx="65.975" cy="118.796" r="0.779"/>
		<path fill="#FFFFFF" d="M66.598,107.563c0,0,3.196-7.336,5.024-12.559c-5.188,2.949-8.948,1.461-11.248-0.107
			C61.05,97.641,62.868,106.229,66.598,107.563z"/>
		<path fill="#6A92B7" d="M41.42,100.239c0,0,0.479,9.542,3.231,15.741C44.655,115.982,43.139,111.809,41.42,100.239z"/>
		<path fill="#6A92B7" d="M75.334,96.368c0,0,7.097,0.655,13.759,4.26C89.092,100.628,83.414,97.68,75.334,96.368z"/>
		<path fill="#6A92B7" d="M45.027,99.561c0,0,5.037-2.525,10.764-3.244C55.788,96.314,50.95,96.993,45.027,99.561z"/>
		<path fill="#6A92B7" d="M64.031,119.924l-0.045-9.576c0,0,0.195,0.812,0.309,9.524"/>
		<path fill="#6A92B7" d="M70.008,107.229c-0.174,0.316-0.572,0.437-0.89,0.262l-2.515-1.381c-0.314-0.174-0.434-0.569-0.259-0.887
			l5.633-10.271c0.173-0.313,0.572-0.433,0.89-0.257l2.514,1.376c0.314,0.179,0.433,0.571,0.26,0.887L70.008,107.229z"/>
		<path fill="#8ABCE6" d="M69.803,106.781c-0.174,0.313-0.572,0.431-0.89,0.258L66.4,105.66c-0.314-0.176-0.433-0.569-0.259-0.889
			l5.631-10.269c0.18-0.315,0.573-0.433,0.892-0.26l2.514,1.379c0.317,0.179,0.433,0.573,0.258,0.889L69.803,106.781z"/>
		<path fill="#6A92B7" d="M64.28,106.073c0.122,0.338-0.057,0.713-0.396,0.832l-2.7,0.964c-0.341,0.124-0.716-0.057-0.836-0.396
			l-3.931-11.029c-0.123-0.344,0.057-0.717,0.396-0.84l2.699-0.959c0.342-0.125,0.715,0.057,0.838,0.396L64.28,106.073z"/>
		<path fill="#8ABCE6" d="M64.321,105.703c0.123,0.342-0.056,0.719-0.396,0.837l-2.701,0.962c-0.34,0.124-0.715-0.057-0.837-0.396
			l-3.931-11.028c-0.122-0.345,0.057-0.722,0.396-0.834l2.699-0.966c0.342-0.12,0.716,0.057,0.837,0.396L64.321,105.703z"/>
		<path fill="#71A9CF" d="M85.499,118.025c0.978-6.211,3.177-15.338,7.808-17.528c0,0,1.275,4.283,2.803,10.411"/>
		<path fill="#6A92B7" d="M88.18,116.354l3.524-15.336c0,0-1.142,7.189-3.188,15.279"/>
	</g>
	<circle fill="none" stroke="#71A9CF" stroke-width="10" stroke-miterlimit="10" cx="66.028" cy="67.177" r="52.483"/>
</g>
<g enable-background="new    ">
	<path fill="#71A9CF" d="M189.583,55.557c-0.132,0.526-1.5,1.976-4.106,4.35c-2.605,2.374-5.3,4.374-8.081,6
		c-2.781,1.627-5.855,3.069-9.226,4.325c-3.37,1.258-7.025,2.238-10.963,2.945c-3.939,0.706-7.982,1.075-12.132,1.108l-0.775-4.188
		c8.281,0.196,15.932-1.068,22.956-3.796c-1.043-1.873-2.854-3.992-5.435-6.358c-4.078,1.791-7.935,3.154-11.57,4.091l-1.909-3.598
		c10.083-2.48,19.144-6.917,27.183-13.308l3.899,1.553c-0.986,0.92-2.109,1.865-3.37,2.834h14.539L189.583,55.557z M188.42,37.542
		c-10.334,8.609-23.7,14.425-40.098,17.448l-1.12-3.993c7.808-1.199,14.149-2.744,19.025-4.633
		c-1.039-1.757-2.858-3.746-5.459-5.964c-3.52,1.66-6.42,2.875-8.699,3.647l-1.816-3.376c7.89-2.842,14.656-6.513,20.301-11.015
		l3.833,1.626c-0.691,0.657-1.623,1.429-2.798,2.316h17.816L188.42,37.542z M182.26,37.542h-16.29
		c-0.201,0.148-0.539,0.345-1.01,0.592c2.353,2.021,4.325,4.09,5.914,6.21C175.236,42.273,179.031,40.006,182.26,37.542z
		 M184.728,55.557h-14.54c-0.435,0.295-1.77,1.068-4.004,2.317c2.041,1.823,3.93,4.025,5.668,6.604
		C177.228,61.898,181.521,58.925,184.728,55.557z"/>
	<path fill="#71A9CF" d="M236.122,73.054h-43.693l1.017-4.065h5.176l3.094-12.371h33.317l-3.094,12.371h5.2L236.122,73.054z
		 M216.335,47.818c-4.138,3.335-10.229,6.515-18.28,9.537l-1.448-3.869c6.921-2.382,12.502-5.125,16.746-8.231L216.335,47.818z
		 M243.154,44.344h-43.815l0.998-3.992h43.815L243.154,44.344z M208.232,68.987l2.114-8.453h-5.15l-2.113,8.453H208.232z
		 M218.468,37.32l-4.529,2.341c-1.564-2.678-3.423-5.134-5.574-7.368l4.431-2.539C215.119,32.087,217.01,34.609,218.468,37.32z
		 M218.015,68.987l2.114-8.453h-5.446l-2.114,8.453H218.015z M227.405,68.987l2.114-8.453h-5.149l-2.114,8.453H227.405z
		 M241.299,53.339l-3.519,3.82c-3.511-2.711-8.199-5.414-14.064-8.108l3.352-3.746C232.39,47.736,237.134,50.415,241.299,53.339z
		 M240.209,31.48c-2.739,2.875-5.796,5.603-9.167,8.181l-3.586-2.218c3.635-2.776,6.597-5.389,8.884-7.836L240.209,31.48z"/>
	<path fill="#71A9CF" d="M294.141,44.541l-3.179,3.943c-2.177-1.018-4.389-2.268-6.629-3.746l-0.709,2.834h-10.352l-1.237,4.953
		h17.027l-1.085,4.337H270.95l-2.939,11.755h18.236l-1.072,4.288H244.34l1.072-4.288h18.015l2.938-11.755h-16.708l1.086-4.337
		h16.708l1.237-4.953h-10.498l0.679-2.711c-2.193,1.15-4.756,2.325-7.684,3.524l-1.873-3.844
		c11.397-4.518,19.778-9.447,25.14-14.787l4.231,1.306c-0.188,0.296-0.491,0.616-0.906,0.961
		C280.485,36.376,285.939,40.548,294.141,44.541z M260.482,66.301l-4.602,1.455c-0.637-2.185-1.871-4.806-3.702-7.862l4.731-1.774
		C258.671,61.061,259.863,63.788,260.482,66.301z M282.27,43.333c-3.673-2.662-6.455-5.265-8.349-7.812
		c-3.594,2.81-7.604,5.414-12.032,7.812H282.27z M283.869,59.696c-2.548,3.221-5.026,5.875-7.438,7.961l-3.906-1.923
		c2.444-2.021,4.911-4.559,7.399-7.615L283.869,59.696z"/>
</g>
<g enable-background="new    ">
	<path d="M166.417,92.277h-7.886c-0.255,0.711-0.538,1.35-0.854,1.912h6.67v11.039h-0.993v-1.178h-10.298v1.16h-1.002V94.189h4.592
		c0.414-0.742,0.702-1.379,0.863-1.912h-7.607v-0.955h16.515L166.417,92.277L166.417,92.277z M163.356,97.121v-1.959h-10.298v1.959
		H163.356z M163.356,100.043v-1.978h-10.298v1.978H163.356z M163.356,103.086v-2.051h-10.298v2.051H163.356z M155.74,90.375
		l-0.872,0.512c-0.311-0.533-0.792-1.148-1.447-1.848l0.798-0.547C154.768,89.068,155.275,89.695,155.74,90.375z M162.92,89.039
		c-0.538,0.805-1.132,1.457-1.781,1.959l-0.815-0.566c0.668-0.605,1.225-1.229,1.67-1.865L162.92,89.039z"/>
	<path d="M179.953,92.52l-0.521,0.871c-1.386-1.342-2.959-2.557-4.722-3.646c-0.427,0.496-1.126,1.14-2.097,1.931h4.268v0.862
		h-4.342V91.73c-1.157,0.854-2.214,1.547-3.173,2.078l-0.521-0.854c2.461-1.33,4.338-2.816,5.631-4.463l1.048,0.26
		c-0.043,0.094-0.096,0.168-0.157,0.223C177.231,90.219,178.759,91.4,179.953,92.52z M178.719,105.266h-0.918v-0.965h-5.492v0.965
		h-0.945v-4.174c-0.304,1.762-0.882,3.139-1.735,4.127l-0.705-0.621c1.181-1.805,1.771-4.004,1.771-6.596v-4.361h8.025v5.27h-7.079
		c-0.013,0.322-0.062,0.804-0.147,1.439h7.227L178.719,105.266L178.719,105.266z M177.782,95.803v-1.242h-6.096v1.242H177.782z
		 M177.782,98.012v-1.299h-6.096v1.299H177.782z M177.801,103.4v-2.152h-5.492v2.152H177.801z M185,103.623
		c0,0.438-0.115,0.795-0.343,1.067c-0.261,0.304-0.622,0.478-1.085,0.521c-0.545,0.022-1.099,0.039-1.661,0.045h-0.751l-0.362-1.029
		c0.822,0.025,1.704,0.02,2.644-0.018c0.161-0.006,0.301-0.086,0.417-0.236c0.117-0.152,0.177-0.305,0.177-0.461V88.66H185V103.623
		L185,103.623z M181.799,101.75l-0.946,0.01V89.541h0.946V101.75z"/>
	<path d="M204.668,103.977l-0.307,0.908H197.2c-2.938,0-5.101-0.701-6.485-2.105c-0.631,0.979-1.345,1.84-2.143,2.588l-0.779-0.647
		c1.897-1.64,3.083-3.729,3.553-6.271h-3.136v-0.763c1.033-1.336,2-2.701,2.904-4.1h-3.247v-0.892h4.425v0.892
		c-0.872,1.336-1.803,2.641-2.792,3.913h2.856v0.947c-0.314,1.354-0.714,2.515-1.196,3.479c0.581,0.682,1.342,1.192,2.281,1.535
		c0.94,0.344,2.268,0.516,3.98,0.516L204.668,103.977L204.668,103.977z M191.745,91.266l-0.668,0.705
		c-0.675-0.834-1.534-1.734-2.579-2.699l0.584-0.723C190.028,89.334,190.915,90.24,191.745,91.266z M204.232,101.49h-5.194v1.726
		h-0.946v-1.726h-5.112v-0.854h5.112v-1.43h-4.156v-5.148h4.156v-1.502h-3.21v-0.779h3.21v-1.16h0.946v1.16h3.256v0.779h-3.256
		v1.502h4.146v5.148h-4.146v1.43h5.194V101.49z M203.805,92.176h-0.946v-2.162h-8.571v2.162h-0.946v-3.07h10.465L203.805,92.176
		L203.805,92.176z M198.09,96.23v-1.393h-3.191v1.393H198.09z M198.09,98.41v-1.383h-3.191v1.383H198.09z M202.274,96.23v-1.393
		h-3.237v1.393H202.274z M202.274,98.41v-1.383h-3.237v1.383H202.274z"/>
	<path d="M222.545,103.902c0,0.514-0.185,0.871-0.552,1.076c-0.368,0.203-1.195,0.307-2.481,0.307c-0.291,0-0.572-0.006-0.844-0.02
		l-0.308-1.039c0.471,0.037,0.929,0.057,1.373,0.057c0.902,0,1.43-0.037,1.577-0.11c0.148-0.074,0.224-0.195,0.224-0.363v-4.582
		h-5.372v5.565h-1.029v-5.565h-5.418c-0.303,2.604-0.956,4.599-1.958,5.983l-0.891-0.622c1.279-1.894,1.92-4.175,1.92-6.847v-8.721
		h13.758L222.545,103.902L222.545,103.902z M215.133,93.512v-3.461h-5.316v3.461H215.133z M215.133,98.242v-3.69h-5.316v3.69
		H215.133z M221.534,93.512v-3.461h-5.372v3.461H221.534z M221.534,98.242v-3.69h-5.372v3.69H221.534z"/>
	<path d="M237.519,104.301h-1.754l-1.559-4.082h-6.16l-1.457,4.082h-1.762l5.528-14.371h1.604L237.519,104.301z M233.669,98.771
		l-2.301-6.207c-0.063-0.172-0.135-0.488-0.214-0.945h-0.047c-0.067,0.42-0.146,0.736-0.23,0.945l-2.273,6.207H233.669z"/>
	<path d="M241.24,104.301h-1.577V89.93h1.577V104.301z"/>
	<path d="M261.056,104.514l-0.742,0.752c-3.952-2.783-6.49-6.607-7.615-11.477c-0.806,4.44-3.325,8.254-7.563,11.438l-0.687-0.815
		c1.44-0.982,2.758-2.213,3.951-3.691s2.104-3.107,2.729-4.885c0.625-1.778,0.959-4.185,1.002-7.213h1.058
		c-0.037,3.506,0.661,6.612,2.098,9.317C256.72,100.648,258.643,102.838,261.056,104.514z"/>
	<path d="M280.073,104.395h-16.605v-0.984h7.773V90.47h-6.977v-1.049h14.937v1.049h-6.931v12.94h7.803V104.395z"/>
	<path d="M291.494,93.623h-3.878c-0.036,0.18-0.1,0.354-0.186,0.528c1.515,0.748,2.844,1.539,3.988,2.375l-0.611,0.761
		c-1.188-0.892-2.447-1.67-3.776-2.338c-0.935,1.424-2.238,2.418-3.915,2.987l-0.724-0.778c2.152-0.72,3.54-1.896,4.165-3.535
		h-3.691v-0.91h3.972c0.117-0.438,0.199-1.062,0.25-1.863h-1.994c-0.471,0.531-0.965,0.996-1.484,1.391l-0.799-0.61
		c1.23-0.953,2.168-1.974,2.813-3.063l0.919,0.324c-0.342,0.557-0.57,0.9-0.688,1.031h5.188v0.928h-2.97
		c-0.062,0.674-0.136,1.295-0.223,1.863h3.646V93.623L291.494,93.623z M296.969,105.266h-0.993v-1.178H285.53v1.197h-0.983v-7.479
		h12.423V105.266z M295.975,100.498v-1.744h-10.446v1.744H295.975z M295.975,103.141v-1.707h-10.446v1.707H295.975z M298.564,96.09
		h-6.271v-6.15h6.271V96.09z M297.571,95.145v-4.277h-4.285v4.277H297.571z"/>
	<path d="M317.944,98.771h-1.81v1.957h-13.388v-0.854h12.386v-1.104H301.43v-0.871h13.702v-1.049h-12.386v-0.873h13.388v1.922h1.81
		V98.771z M304.381,101.889c-0.532,1.102-1.256,2.109-2.171,3.025l-0.762-0.613c0.902-0.922,1.607-1.877,2.115-2.867
		L304.381,101.889z M309.298,90.486h-3.024v1.254h2.607v0.871h-2.607v1.299h3.006v0.836h-3.006v0.64h-0.909v-0.64h-3.683V93.91
		h3.683v-1.299h-3.099V91.74h3.099v-1.254h-3.534v-0.871h3.534v-1.012h0.909v1.012h3.024V90.486z M314.373,102.705
		c-0.132,1.008-0.347,1.651-0.646,1.93c-0.3,0.279-0.544,0.436-0.732,0.473c-0.188,0.037-1.396,0.057-3.623,0.057
		c-1.372,0-2.202-0.016-2.49-0.047c-0.287-0.031-0.523-0.162-0.709-0.395c-0.187-0.23-0.279-0.555-0.279-0.969v-2.228h0.993v2.207
		c0,0.254,0.146,0.404,0.437,0.451c0.29,0.047,1.193,0.067,2.709,0.067c1.49,0,2.338-0.018,2.541-0.055
		c0.205-0.037,0.385-0.147,0.539-0.334c0.154-0.186,0.261-0.68,0.314-1.483L314.373,102.705z M311.636,102.418l-0.612,0.723
		c-0.779-0.531-1.57-0.955-2.375-1.27l0.594-0.742C309.984,101.4,310.781,101.83,311.636,102.418z M317.767,94.746h-3.738v0.64
		h-0.928v-0.64h-3.043V93.91h3.043v-1.299h-2.533V91.74h2.533v-1.254h-2.987v-0.871h2.987v-1.012h0.928v1.012h3.517v0.871h-3.517
		v1.254h3.063v0.871h-3.063v1.299h3.738V94.746z M317.926,104.172l-0.725,0.639c-0.638-1.051-1.352-1.98-2.144-2.791l0.762-0.566
		C316.586,102.207,317.289,103.113,317.926,104.172z"/>
	<path d="M334.681,91.035c-2.944,3.457-7.562,5.693-13.851,6.707l-0.455-1.002c2.882-0.383,5.307-1.006,7.272-1.865
		c-0.768-0.803-1.854-1.717-3.266-2.735c-0.972,0.545-1.992,1.021-3.063,1.428l-0.603-0.871c3.072-1.149,5.32-2.532,6.744-4.146
		l1.012,0.379c-0.359,0.502-0.768,0.932-1.225,1.291h7.431v0.814H334.681z M336.814,97.863c0,0.191-0.35,0.754-1.049,1.688
		c-0.383,0.508-0.802,0.979-1.257,1.416c-0.454,0.436-0.949,0.842-1.484,1.219c-0.534,0.377-1.167,0.752-1.896,1.123
		s-1.629,0.715-2.699,1.029c-1.07,0.315-2.162,0.553-3.275,0.711c-1.113,0.155-2.174,0.235-3.182,0.235l-0.473-1.021
		c3.399,0,6.302-0.521,8.7-1.56c-0.797-0.959-1.907-1.973-3.329-3.043c-1.188,0.625-2.616,1.127-4.287,1.504l-0.557-0.946
		c4.021-0.742,7.139-2.465,9.353-5.168l0.945,0.399c-0.434,0.525-0.899,1.029-1.399,1.513h5.891L336.814,97.863L336.814,97.863z
		 M333.196,91.191h-7.218c-0.137,0.119-0.354,0.264-0.658,0.438c1.156,0.834,2.25,1.766,3.283,2.791
		C330.323,93.604,331.853,92.527,333.196,91.191z M335.637,97.938h-5.854c-0.563,0.432-1.202,0.85-1.921,1.252
		c1.146,0.885,2.246,1.887,3.303,3.006C333.198,101.088,334.689,99.668,335.637,97.938z"/>
	<path d="M346.139,95.414c-2.512,1.606-4.563,2.684-6.151,3.229l-0.611-0.9c1.769-0.514,3.78-1.531,6.038-3.053L346.139,95.414z
		 M356.018,104.969H339.43v-0.992h2.449v-5.334h11.688v5.334h2.449L356.018,104.969L356.018,104.969z M355.767,93.771h-16.049
		v-0.984h16.049V93.771z M345.758,91.535l-0.688,0.621c-0.935-1.125-1.9-2.086-2.902-2.885l0.705-0.686
		C343.961,89.463,344.923,90.447,345.758,91.535z M345.498,103.977v-4.369h-2.646v4.369H345.498z M349.023,103.977v-4.369H346.5
		v4.369H349.023z M356.018,98.029l-0.622,0.779c-1.596-1.125-3.68-2.213-6.252-3.266l0.621-0.816
		C352.35,95.816,354.435,96.916,356.018,98.029z M353.514,89.365c-1.039,1.205-2.097,2.17-3.173,2.896l-0.725-0.668
		c1.107-0.773,2.146-1.736,3.117-2.888L353.514,89.365z M352.575,103.977v-4.369h-2.54v4.369H352.575z"/>
	<path d="M362.578,88.742l-1.05,3.519v13.006h-0.982V94.617c-0.563,1.149-1.083,2.075-1.56,2.772L358.3,96.61
		c1.403-2.12,2.518-4.856,3.34-8.209L362.578,88.742z M374.944,94.271h-8.396c-0.354,0.631-0.679,1.145-0.976,1.541h8.248v8.016
		c0,0.285-0.081,0.562-0.242,0.826c-0.159,0.267-0.375,0.445-0.645,0.537c-0.27,0.094-0.814,0.125-1.637,0.094l-0.399-0.946
		c0.421,0.02,0.779,0.026,1.076,0.026c0.612,0,0.919-0.215,0.919-0.647v-1.939h-3.117v3.285h-0.956v-3.285h-3.507
		c-0.408,1.398-1.073,2.597-1.994,3.591l-0.688-0.648c1.453-1.607,2.181-3.578,2.181-5.91V96.76
		c-0.668,0.873-1.413,1.658-2.235,2.357l-0.649-0.688c1.393-1.188,2.589-2.572,3.591-4.156h-3.136v-0.937h3.571v-1.875H362.8v-0.954
		h3.153V88.66h0.975v1.847h3.628V88.66h0.981v1.847h3.007v0.954h-3.007v1.875h3.405L374.944,94.271L374.944,94.271z M368.821,100.84
		v-1.613h-3.089c-0.024,0.611-0.09,1.15-0.194,1.613H368.821z M368.821,98.299v-1.578h-3.052v1.578H368.821z M370.557,93.336v-1.875
		h-3.628v1.875H370.557z M372.894,98.299v-1.578h-3.117v1.578H372.894z M372.894,100.84v-1.613h-3.117v1.613H372.894z"/>
	<path d="M393.944,94.838h-5.798c-0.959,0.682-2.108,1.383-3.451,2.104h7.922v0.976h-7.866l-0.631,2.283h8.479
		c-0.236,1.879-0.531,3.127-0.887,3.741c-0.356,0.615-0.834,0.994-1.435,1.134c-0.6,0.139-1.766,0.209-3.497,0.209
		c-0.704,0-1.435-0.021-2.188-0.058l-0.417-1.002c1.278,0.051,2.412,0.074,3.395,0.074c1.379,0,2.228-0.052,2.543-0.152
		c0.314-0.102,0.574-0.344,0.779-0.725c0.203-0.38,0.394-1.127,0.565-2.24h-8.665l1.075-3.84c-2.479,1.125-4.453,1.944-5.919,2.457
		l-0.575-0.882c3.761-1.247,6.781-2.608,9.064-4.082h-8.555v-1.002h6.217v-2.495h-4.881v-0.966h4.881v-1.715h1.011v1.715h4.63v0.966
		h-4.63v2.495h2.709c1.397-0.938,3.003-2.467,4.815-4.582l0.76,0.632c-1.396,1.645-2.703,2.963-3.914,3.95h4.462L393.944,94.838
		L393.944,94.838z"/>
	<path d="M401.598,96.592l-0.742,0.621c-0.357-0.654-0.751-1.289-1.178-1.902v9.955h-0.983V95.83
		c-0.691,1.985-1.308,3.448-1.847,4.389l-0.547-1.049c0.965-1.688,1.756-3.748,2.375-6.178h-2.228v-0.947h2.245v-3.479h0.983v3.479
		h1.41v0.947h-1.41v1.012C400.351,94.826,400.991,95.689,401.598,96.592z M413.13,102.27c-0.13,1.057-0.326,1.857-0.589,2.398
		c-0.265,0.541-0.623,0.811-1.081,0.811c-0.829,0-1.735-0.861-2.718-2.588c-1.033,0.873-2.256,1.633-3.666,2.283l-0.668-0.762
		c1.479-0.537,2.783-1.312,3.915-2.318c-0.568-1.182-0.948-2.32-1.141-3.414h-3.471l-0.12,1.141
		c1.052,0.557,1.945,1.176,2.681,1.855l-0.547,0.797c-0.477-0.52-1.229-1.094-2.264-1.725c-0.391,1.817-1.183,3.364-2.375,4.639
		l-0.872-0.613c1.546-1.359,2.375-3.391,2.486-6.094h-1.688v-0.957h5.983c-0.364-3.035-0.568-6.088-0.612-9.156l0.975,0.037
		c0.08,4.113,0.294,7.152,0.642,9.119h1.92c-0.051-0.111-0.201-0.408-0.455-0.891l0.779-0.324c0.248,0.311,0.471,0.715,0.668,1.215
		h2.031v0.957h-4.769c0.136,0.816,0.433,1.709,0.891,2.68c0.612-0.631,1.163-1.385,1.651-2.264l0.742,0.475
		c-0.595,1.014-1.271,1.896-2.032,2.644c0.26,0.532,0.594,1.043,1.002,1.53c0.408,0.488,0.725,0.732,0.947,0.732
		c0.179,0,0.341-0.164,0.485-0.496c0.146-0.33,0.289-1.053,0.433-2.166L413.13,102.27z M406.366,96.646l-0.854,0.242
		c-0.021-0.223-0.068-0.514-0.148-0.873c-1.349,0.125-2.509,0.252-3.479,0.381l-0.148-0.686c0.812-0.965,1.481-1.844,2.014-2.635
		l-1.977,0.297l-0.251-0.816c0.86-1.424,1.507-2.707,1.939-3.852l0.854,0.399c-0.384,0.896-0.945,1.974-1.688,3.229
		c0.605-0.058,1.212-0.152,1.817-0.289c0.272-0.389,0.572-0.902,0.899-1.539l0.816,0.455c-0.916,1.545-1.968,3.014-3.154,4.406
		c0.625-0.031,1.333-0.101,2.125-0.205c-0.087-0.445-0.221-0.867-0.398-1.271l0.834-0.231
		C405.902,94.428,406.169,95.422,406.366,96.646z M412.944,96.592l-0.854,0.26c-0.031-0.205-0.104-0.502-0.214-0.891
		c-1.026,0.117-2.164,0.27-3.414,0.455l-0.25-0.816c0.798-0.947,1.45-1.787,1.957-2.523c-0.525,0.062-1.165,0.16-1.921,0.297
		l-0.286-0.815c0.784-1.263,1.419-2.502,1.9-3.722l0.854,0.382c-0.525,1.1-1.076,2.139-1.651,3.116
		c0.384-0.051,0.986-0.146,1.81-0.289c0.234-0.346,0.514-0.793,0.836-1.344l0.815,0.416c-0.681,1.158-1.677,2.574-2.987,4.25
		l2.077-0.242c-0.104-0.432-0.219-0.774-0.343-1.028l0.835-0.261C412.443,94.666,412.722,95.584,412.944,96.592z"/>
	<path d="M432.111,99.662l-0.528,0.918l-1.158-0.444v5.149h-0.947v-1.059h-3.748v1.059h-0.982v-5.826h4.229
		c-1.764-0.891-3.143-1.868-4.139-2.932h-2.228c-1.014,1.156-2.304,2.133-3.868,2.932h3.935v5.826h-0.993v-1.059h-3.72v1.059h-1.012
		v-5.065c-0.358,0.147-0.738,0.274-1.142,0.381l-0.437-0.881c2.702-0.843,4.69-1.906,5.966-3.191h-5.817v-0.909h6.634
		c0.428-0.563,0.802-1.146,1.122-1.744l0.892,0.26c-0.203,0.533-0.482,1.027-0.834,1.484h8.497v0.909h-5.586
		C427.603,97.838,429.558,98.883,432.111,99.662z M422.463,93.604h-5.51v-4.498h5.51V93.604z M421.498,92.695v-2.682h-3.571v2.682
		H421.498z M421.684,103.252v-2.885h-3.72v2.885H421.684z M430.461,93.604h-5.604v-4.498h5.604V93.604z M429.476,103.252v-2.885
		h-3.748v2.885H429.476z M429.476,92.695v-2.682h-3.608v2.682H429.476z M429.375,94.709l-0.566,0.742
		c-0.494-0.298-1.032-0.545-1.613-0.742l0.491-0.779C428.397,94.176,428.961,94.436,429.375,94.709z"/>
	<path d="M451.057,104.514l-0.742,0.752c-3.953-2.783-6.491-6.607-7.617-11.477c-0.804,4.44-3.324,8.254-7.561,11.438l-0.688-0.815
		c1.441-0.982,2.76-2.213,3.953-3.691s2.104-3.107,2.728-4.885c0.625-1.777,0.959-4.185,1.002-7.213h1.059
		c-0.037,3.506,0.661,6.612,2.096,9.317C446.721,100.648,448.644,102.838,451.057,104.514z"/>
</g>
</svg>
